<?xml version="1.0" encoding="utf-8"?>
<!-- Generator: Adobe Illustrator 22.0.1, SVG Export Plug-In . SVG Version: 6.00 Build 0)  -->
<svg version="1.1" id="Calque_1" xmlns="http://www.w3.org/2000/svg" xmlns:xlink="http://www.w3.org/1999/xlink" x="0px" y="0px"
	 viewBox="0 0 60 60" style="enable-background:new 0 0 60 60;" xml:space="preserve">
<style type="text/css">
	.st0{fill:#028087;}
</style>
<g>
	<path class="st0" d="M40.2,25.7V20c0-5.6-4.6-10.3-10.2-10.3S19.8,14.4,19.8,20v5.8h3.5V20c0-3.8,3-6.8,6.7-6.9
		c3.7,0,6.8,3,6.8,6.7c0,0.1,0,0.1,0,0.2v5.8H40.2z"/>
	<path class="st0" d="M16.3,26.7v17.6c0,1.9,1.6,3.5,3.5,3.5c0,0,5.9,0.6,10.2,0.6c4.4,0,10.2-0.6,10.2-0.6c1.9,0,3.5-1.6,3.5-3.5
		V26.7H16.3z M33.9,30.8c0,3.4,0,6.8,0,10.1c0,1.4-0.6,2.5-1.8,3.2c-1.8,1.1-4.2,1-5.8-0.6c-1.5-1.6-1.5-4.4,0.1-5.9
		c1.2-1.2,2.5-2.4,3.8-3.6c1.2-1.1,2.4-2.2,3.5-3.3c0.1,0,0.1-0.1,0.2-0.1C33.9,30.7,33.9,30.7,33.9,30.8z"/>
</g>
</svg>
